<svg version="1.1" viewBox="0.0 0.0 100.0 100.0" fill="none" stroke="none" stroke-linecap="square" stroke-miterlimit="10" xmlns:xlink="http://www.w3.org/1999/xlink" xmlns="http://www.w3.org/2000/svg"><clipPath id="p.0"><path d="m0 0l100.0 0l0 100.0l-100.0 0l0 -100.0z" clip-rule="nonzero"/></clipPath><g clip-path="url(#p.0)"><path fill="#000000" fill-opacity="0.0" d="m0 0l100.0 0l0 100.0l-100.0 0z" fill-rule="evenodd"/><path fill="#000000" fill-opacity="0.0" d="m42.439632 10.036745l-3.937008 76.18898" fill-rule="evenodd"/><path stroke="#000000" stroke-width="1.0" stroke-linejoin="round" stroke-linecap="butt" d="m42.439632 10.036745l-3.937008 76.18898" fill-rule="evenodd"/><path fill="#000000" d="m38.007294 85.59131c4.1536255 0.32273865 21.936283 6.183525 24.92175 1.9364471c2.9854698 -4.2470856 -3.292225 -22.073883 -7.0089455 -27.418945c-3.7167168 -5.345066 -12.7428055 -3.8762054 -15.291367 -4.6514435" fill-rule="evenodd"/><path stroke="#000000" stroke-width="1.0" stroke-linejoin="round" stroke-linecap="butt" d="m38.007294 85.59131c4.1536255 0.32273865 21.936283 6.183525 24.92175 1.9364471c2.9854698 -4.2470856 -3.292225 -22.073883 -7.0089455 -27.418945c-3.7167168 -5.345066 -12.7428055 -3.8762054 -15.291367 -4.6514435" fill-rule="evenodd"/></g></svg>