<svg version="1.1" viewBox="0.0 0.0 564.5774278215223 579.3228346456693" fill="none" stroke="none" stroke-linecap="square" stroke-miterlimit="10" xmlns:xlink="http://www.w3.org/1999/xlink" xmlns="http://www.w3.org/2000/svg"><clipPath id="p.0"><path d="m0 0l564.57745 0l0 579.3228l-564.57745 0l0 -579.3228z" clip-rule="nonzero"/></clipPath><g clip-path="url(#p.0)"><path fill="#000000" fill-opacity="0.0" d="m0 0l564.57745 0l0 579.3228l-564.57745 0z" fill-rule="evenodd"/><path fill="#ffe599" d="m450.83472 129.3095l0 0c72.34497 74.93678 59.392944 209.85771 -28.929138 301.3543c-88.32208 91.49664 -218.56844 104.92102 -290.9134 29.984253c-72.344955 -74.93677 -59.392937 -209.8577 28.929138 -301.3543l130.99213 135.68504z" fill-rule="evenodd"/><path stroke="#000000" stroke-width="1.0" stroke-linejoin="round" stroke-linecap="butt" d="m450.83472 129.3095l0 0c72.34497 74.93678 59.392944 209.85771 -28.929138 301.3543c-88.32208 91.49664 -218.56844 104.92102 -290.9134 29.984253c-72.344955 -74.93677 -59.392937 -209.8577 28.929138 -301.3543l130.99213 135.68504z" fill-rule="evenodd"/><path fill="#000000" d="m116.49504 253.06367l14.834473 -14.855408l15.807434 15.7851715l15.807434 -15.7851715l14.834473 14.855408l-15.786484 15.764236l15.786484 15.764252l-14.834473 14.855408l-15.807434 -15.785187l-15.807434 15.785187l-14.834473 -14.855408l15.786484 -15.764252z" fill-rule="evenodd"/><path stroke="#000000" stroke-width="1.0" stroke-linejoin="round" stroke-linecap="butt" d="m116.49504 253.06367l14.834473 -14.855408l15.807434 15.7851715l15.807434 -15.7851715l14.834473 14.855408l-15.786484 15.764236l15.786484 15.764252l-14.834473 14.855408l-15.807434 -15.785187l-15.807434 15.785187l-14.834473 -14.855408l15.786484 -15.764252z" fill-rule="evenodd"/></g></svg>