<svg version="1.1" viewBox="0.0 0.0 562.7244094488188 483.36745406824144" fill="none" stroke="none" stroke-linecap="square" stroke-miterlimit="10" xmlns:xlink="http://www.w3.org/1999/xlink" xmlns="http://www.w3.org/2000/svg"><clipPath id="p.0"><path d="m0 0l562.7244 0l0 483.36746l-562.7244 0l0 -483.36746z" clip-rule="nonzero"/></clipPath><g clip-path="url(#p.0)"><path fill="#000000" fill-opacity="0.0" d="m0 0l562.7244 0l0 483.36746l-562.7244 0z" fill-rule="evenodd"/><path fill="#ffe599" d="m26.933071 253.95013l0 0c0 -121.52875 114.66446 -220.04724 256.11023 -220.04724l0 0c141.44577 0 256.11026 98.5185 256.11026 220.04724l0 0c0 121.52875 -114.66449 220.04724 -256.11026 220.04724l0 0c-141.44577 0 -256.11023 -98.51849 -256.11023 -220.04724z" fill-rule="evenodd"/><path stroke="#000000" stroke-width="1.0" stroke-linejoin="round" stroke-linecap="butt" d="m26.933071 253.95013l0 0c0 -121.52875 114.66446 -220.04724 256.11023 -220.04724l0 0c141.44577 0 256.11026 98.5185 256.11026 220.04724l0 0c0 121.52875 -114.66449 220.04724 -256.11026 220.04724l0 0c-141.44577 0 -256.11023 -98.51849 -256.11023 -220.04724z" fill-rule="evenodd"/><path fill="#000000" d="m68.405876 227.54706l22.59642 -30.441803l-22.14418 -16.43895l15.474014 -20.846527l22.14418 16.43895l22.596428 -30.441803l20.845764 15.475052l-22.596428 30.441803l22.144188 16.43895l-15.474014 20.846527l-22.144188 -16.43895l-22.596428 30.441803z" fill-rule="evenodd"/><path stroke="#000000" stroke-width="1.0" stroke-linejoin="round" stroke-linecap="butt" d="m68.405876 227.54706l22.59642 -30.441803l-22.14418 -16.43895l15.474014 -20.846527l22.14418 16.43895l22.596428 -30.441803l20.845764 15.475052l-22.596428 30.441803l22.144188 16.43895l-15.474014 20.846527l-22.144188 -16.43895l-22.596428 30.441803z" fill-rule="evenodd"/><path fill="#000000" fill-opacity="0.0" d="m283.0433 33.902885l13.700775 269.82675" fill-rule="evenodd"/><path stroke="#000000" stroke-width="4.0" stroke-linejoin="round" stroke-linecap="butt" d="m283.0433 33.902885l13.700775 269.82675" fill-rule="evenodd"/></g></svg>